<svg width="512" height="512" viewBox="0 0 512 512" fill="none" xmlns="http://www.w3.org/2000/svg">
<circle cx="256" cy="256" r="256" fill="#7DD3FC"/>
<path d="M314.008 163.077C314.008 178.48 307.896 193.252 297.018 204.143C286.139 215.035 271.385 221.154 256 221.154C240.615 221.154 225.861 215.035 214.982 204.143C204.104 193.252 197.992 178.48 197.992 163.077C197.992 147.674 204.104 132.902 214.982 122.01C225.861 111.119 240.615 105 256 105C271.385 105 286.139 111.119 297.018 122.01C307.896 132.902 314.008 147.674 314.008 163.077ZM140 381.725C140.497 351.251 152.937 322.194 174.637 300.82C196.337 279.446 225.559 267.468 256 267.468C286.441 267.468 315.663 279.446 337.363 300.82C359.063 322.194 371.503 351.251 372 381.725C335.608 398.432 296.035 407.054 256 407C214.606 407 175.315 397.955 140 381.725Z" stroke="#F0F9FF" stroke-width="15" stroke-linecap="round" stroke-linejoin="round"/>
<g clip-path="url(#clip0_616_79)">
<path d="M512 256C512 397.385 397.385 512 256 512C114.615 512 0 397.385 0 256C0 114.615 114.615 0 256 0C397.385 0 512 114.615 512 256ZM81.92 256C81.92 352.142 159.858 430.08 256 430.08C352.142 430.08 430.08 352.142 430.08 256C430.08 159.858 352.142 81.92 256 81.92C159.858 81.92 81.92 159.858 81.92 256Z" fill="url(#paint0_linear_616_79)"/>
<path d="M37.1139 299.037L71.596 302.584L71.8767 306.029L37.3946 302.482L37.1139 299.037ZM45.5873 286.596L48.983 286.897L50.7024 307.995L47.3067 307.694L45.5873 286.596ZM36.3419 289.565L70.824 293.111L71.1047 296.556L36.6227 293.009L36.3419 289.565ZM57.3688 287.562L60.7644 287.863L62.4838 308.961L59.0882 308.66L57.3688 287.562Z" fill="#F0F9FF"/>
<path d="M39.6937 320.858L72.7358 312.512L75.6042 323.867C76.5916 327.776 76.6186 330.889 75.6852 333.204C74.7517 335.519 72.7493 337.064 69.6777 337.84C68.2506 338.201 66.9157 338.208 65.673 337.862C64.4304 337.515 63.3538 336.847 62.4434 335.855C61.5639 334.856 60.9243 333.566 60.5247 331.983L60.7921 331.866C61.5053 334.69 61.3055 337.1 60.1928 339.097C59.1189 341.118 57.372 342.434 54.952 343.045C51.9425 343.805 49.4308 343.4 47.4168 341.83C45.4029 340.259 43.9413 337.674 43.0322 334.075L39.6937 320.858ZM44.6138 323.873L46.9414 333.088C47.5135 335.353 48.4178 336.972 49.6542 337.947C50.8984 338.953 52.3893 339.237 54.1267 338.798C55.8641 338.359 57.057 337.398 57.7053 335.914C58.3925 334.453 58.45 332.59 57.8779 330.325L55.5503 321.111L44.6138 323.873ZM59.4595 320.123L61.3169 327.476C61.9282 329.896 62.8483 331.644 64.0772 332.72C65.3371 333.788 66.7892 334.114 68.4336 333.699C70.171 333.26 71.2979 332.299 71.8143 330.815C72.3695 329.355 72.3297 327.368 71.6949 324.855L69.8376 317.502L59.4595 320.123Z" fill="#F0F9FF"/>
<path d="M49.1317 355.108L85.204 351.757L87.5691 356.797L61.9357 382.398L60.0192 378.313L67.3495 371.109L61.2737 358.16L51.0482 359.193L49.1317 355.108ZM65.5151 357.707L70.4084 368.136L83.1274 355.806L65.5151 357.707Z" fill="#F0F9FF"/>
<path d="M68.305 392.863L95.6908 372.578L99.1763 377.284L85.1358 408.65L109.204 390.823L111.661 394.14L84.2756 414.425L80.6187 409.487L94.3678 378.695L70.762 396.18L68.305 392.863Z" fill="#F0F9FF"/>
<path d="M94.4969 425.655L117.145 400.189L121.521 404.081L114.206 437.659L134.11 415.277L137.195 418.021L114.547 443.487L109.956 439.404L117.103 406.448L97.5815 428.399L94.4969 425.655Z" fill="#F0F9FF"/>
<path d="M126.889 452.162L144.357 422.899L162.739 433.871L160.672 437.334L145.835 428.477L140.201 437.915L154.544 446.477L152.527 449.857L138.183 441.295L132.5 450.816L147.668 459.869L145.601 463.332L126.889 452.162Z" fill="#F0F9FF"/>
<path d="M157.386 469.026L169.294 437.094L181.392 441.606C183.641 442.444 185.429 443.555 186.757 444.939C188.086 446.322 188.911 447.91 189.233 449.704C189.595 451.478 189.408 453.355 188.67 455.334C188.133 456.773 187.308 457.934 186.193 458.816C185.12 459.68 183.935 460.245 182.64 460.514C181.345 460.782 180.116 460.734 178.954 460.369L178.835 459.863C180.784 460.59 182.146 461.61 182.92 462.923C183.724 464.248 183.847 465.933 183.289 467.979L180.683 477.714L176.77 476.255L179.315 466.958C179.687 465.594 179.571 464.441 178.966 463.498C178.391 462.566 177.174 461.754 175.315 461.061L166.05 457.606L161.254 470.469L157.386 469.026ZM167.459 453.828L176.184 457.082C178.133 457.809 179.862 457.89 181.37 457.325C182.878 456.76 183.974 455.564 184.656 453.735C185.349 451.876 185.295 450.234 184.495 448.808C183.706 447.353 182.202 446.211 179.983 445.384L171.753 442.315L167.459 453.828Z" fill="#F0F9FF"/>
<path d="M205.894 484.003C203.307 483.564 201.134 482.692 199.376 481.387C197.617 480.082 196.315 478.482 195.468 476.585C194.659 474.663 194.352 472.55 194.548 470.246L198.856 470.685C198.793 472.395 199.041 473.897 199.6 475.193C200.159 476.489 201.018 477.544 202.178 478.358C203.37 479.177 204.865 479.739 206.663 480.044C208.241 480.312 209.616 480.334 210.79 480.112C211.964 479.889 212.902 479.432 213.604 478.739C214.337 478.052 214.8 477.141 214.993 476.005C215.17 474.964 215.073 474.006 214.702 473.132C214.368 472.231 213.563 471.332 212.287 470.434C211.048 469.509 209.144 468.488 206.575 467.37C204.101 466.269 202.158 465.192 200.746 464.141C199.365 463.095 198.424 461.946 197.923 460.692C197.453 459.444 197.361 457.984 197.644 456.312C197.966 454.419 198.689 452.837 199.813 451.568C200.974 450.272 202.458 449.371 204.264 448.867C206.075 448.33 208.132 448.257 210.435 448.648C212.896 449.066 214.93 449.898 216.536 451.145C218.147 452.36 219.337 453.86 220.105 455.646C220.873 457.431 221.209 459.371 221.113 461.464L216.806 461.025C216.847 459.637 216.609 458.363 216.091 457.204C215.611 456.019 214.838 455.027 213.772 454.23C212.707 453.432 211.338 452.891 209.666 452.608C207.584 452.254 205.842 452.478 204.44 453.278C203.044 454.047 202.209 455.236 201.936 456.845C201.759 457.887 201.848 458.794 202.204 459.569C202.596 460.317 203.377 461.066 204.548 461.817C205.725 462.536 207.445 463.396 209.709 464.397C212.399 465.568 214.481 466.782 215.956 468.038C217.467 469.268 218.463 470.573 218.943 471.953C219.454 473.338 219.573 474.835 219.3 476.444C218.968 478.4 218.174 480.018 216.918 481.298C215.667 482.546 214.092 483.415 212.191 483.904C210.296 484.361 208.197 484.394 205.894 484.003Z" fill="#F0F9FF"/>
<path d="M229.408 485.816L229.61 480.396L235.03 480.598L234.828 486.018L229.408 485.816Z" fill="#F0F9FF"/>
<path d="M247.133 486.15L244.29 452.189L248.404 451.844L251.086 483.892L248.853 481.96L267.891 480.366L268.227 484.384L247.133 486.15Z" fill="#F0F9FF"/>
<path d="M280.434 481.953L273.268 448.635L277.304 447.767L284.47 481.085L280.434 481.953Z" fill="#F0F9FF"/>
</g>
<defs>
<linearGradient id="paint0_linear_616_79" x1="440.652" y1="-24.4148" x2="149.096" y2="333.037" gradientUnits="userSpaceOnUse">
<stop offset="0.748183" stop-color="#FCA67D" stop-opacity="0"/>
<stop offset="1" stop-color="#FCA67D"/>
</linearGradient>
<clipPath id="clip0_616_79">
<rect width="512" height="512" fill="white"/>
</clipPath>
</defs>
</svg>
