<svg width="512" height="512" viewBox="0 0 512 512" fill="none" xmlns="http://www.w3.org/2000/svg">
<g clip-path="url(#clip0_621_1249)">
<path d="M512 256C512 397.385 397.385 512 256 512C114.615 512 0 397.385 0 256C0 114.615 114.615 0 256 0C397.385 0 512 114.615 512 256ZM81.92 256C81.92 352.142 159.858 430.08 256 430.08C352.142 430.08 430.08 352.142 430.08 256C430.08 159.858 352.142 81.92 256 81.92C159.858 81.92 81.92 159.858 81.92 256Z" fill="url(#paint0_linear_621_1249)"/>
<path d="M29.4826 283.505L29.4151 279.376L38.3984 280.928L38.2986 274.816L29.3153 273.265L29.2479 269.135L38.2312 270.687L38.1736 267.164L41.8547 267.1L41.9239 271.339L50.6865 272.84L50.5903 266.949L54.2164 266.886L54.3252 273.548L63.3634 275.098L63.4308 279.228L54.3926 277.677L54.4924 283.788L63.5297 285.284L63.5972 289.413L54.5599 287.917L54.6174 291.441L50.9913 291.504L50.9221 287.264L42.1586 285.709L42.2557 291.655L38.5746 291.719L38.4658 285.057L29.4826 283.505ZM50.8537 283.08L50.7548 277.024L41.9913 275.468L42.0902 281.525L50.8537 283.08Z" fill="#404040"/>
<path d="M41.0468 333.185L37.3034 334.075L32.6427 314.304L65.7451 306.439L66.7808 310.832L37.4218 317.808L41.0468 333.185Z" fill="#404040"/>
<path d="M76.4681 352.123L52.505 363.055L55.2324 369.068L51.7305 370.666L44.4119 354.53L47.9138 352.932L50.6412 358.946L74.6043 348.014L71.8769 342L75.3788 340.403L82.6974 356.539L79.1955 358.137L76.4681 352.123Z" fill="#404040"/>
<path d="M73.2064 404.442C74.9258 401.634 76.4523 399.06 77.7853 396.718C79.1478 394.355 80.3989 392.119 81.5385 390.01C82.6997 387.93 83.7574 385.927 84.7116 383.999C85.6954 382.05 86.6684 380.086 87.6305 378.107L65.716 394.179L63.2841 390.848L90.7438 370.709L93.4675 374.44C92.1357 377.281 90.966 379.754 89.9584 381.857C88.9724 383.989 87.9658 386.001 86.9388 387.891C85.963 389.789 84.9064 391.7 83.7691 393.626C82.6613 395.53 81.3523 397.717 79.8419 400.189L100.958 384.703L103.39 388.035L75.9301 408.174L73.2064 404.442Z" fill="#404040"/>
<path d="M130.359 414.261C127.242 415.079 124.001 415.763 120.635 416.312C117.296 416.884 113.82 417.335 110.207 417.665C110.43 419.185 110.599 420.879 110.713 422.744C110.827 424.609 110.829 426.546 110.719 428.556C110.66 430.562 110.46 432.59 110.119 434.64C109.805 436.714 109.329 438.694 108.692 440.581L104.864 437.192C105.294 435.318 105.645 433.424 105.917 431.509C106.189 429.593 106.333 427.712 106.349 425.864C106.394 424.041 106.311 422.277 106.103 420.574C105.946 418.867 105.667 417.272 105.265 415.789L94.4905 428.009L91.1151 425.021L113.646 399.467L117.022 402.455L106.975 413.849C110.385 413.584 113.785 413.164 117.176 412.588C120.594 412.036 123.684 411.44 126.448 410.799L130.359 414.261Z" fill="#404040"/>
<path d="M125.414 452.378L142.443 422.856L159.139 432.517L157.213 435.856L144.418 428.452L139.108 437.656L150.381 444.18L148.483 447.47L137.21 440.947L129.315 454.635L125.414 452.378Z" fill="#404040"/>
<path d="M188.518 455.031C187.855 457.016 186.746 458.599 185.191 459.782C183.649 460.93 181.852 461.625 179.801 461.867C180.043 462.878 180.296 464.027 180.56 465.316C180.871 466.582 181.152 467.934 181.405 469.374C181.669 470.779 181.898 472.23 182.092 473.728C182.333 475.202 182.527 476.642 182.676 478.046L178.091 476.51C177.887 473.655 177.545 470.868 177.063 468.151C176.616 465.446 176.057 463.188 175.389 461.376C175.169 461.341 174.85 461.254 174.433 461.114C174.052 460.987 173.791 460.899 173.652 460.853L170.005 459.631L165.744 472.374L161.419 470.925L172.073 439.068C172.64 439.103 173.271 439.179 173.966 439.296C174.696 439.424 175.414 439.587 176.12 439.785C176.873 439.96 177.603 440.146 178.309 440.344C179.015 440.542 179.646 440.734 180.202 440.92C184.092 442.223 186.724 444.054 188.098 446.411C189.508 448.78 189.648 451.654 188.518 455.031ZM179.326 444.75C178.528 444.483 177.74 444.238 176.964 444.017C176.235 443.773 175.702 443.633 175.366 443.598L171.192 456.08L173.954 457.005C175.204 457.424 176.344 457.709 177.375 457.861C178.441 458.024 179.397 457.996 180.243 457.776C181.135 457.533 181.906 457.075 182.556 456.402C183.217 455.694 183.769 454.679 184.212 453.356C184.631 452.103 184.783 451.011 184.669 450.083C184.555 449.154 184.261 448.358 183.787 447.696C183.325 447 182.689 446.419 181.879 445.954C181.115 445.465 180.264 445.064 179.326 444.75Z" fill="#404040"/>
<path d="M221.286 484.777L220.362 475.675L207.383 474.076L204.326 482.689L199.746 482.124C200.66 479.796 201.673 477.276 202.783 474.564C203.893 471.853 205.067 469.075 206.304 466.231C207.578 463.392 208.887 460.557 210.233 457.726C211.584 454.86 212.971 452.145 214.395 449.583L219.957 450.268C220.678 453.094 221.327 456.06 221.903 459.164C222.52 462.236 223.065 465.299 223.536 468.353C224.044 471.412 224.506 474.391 224.923 477.291C225.34 480.19 225.709 482.881 226.03 485.362L221.286 484.777ZM216.526 453.841C215.407 456.033 214.169 458.581 212.814 461.484C211.459 464.388 210.147 467.389 208.878 470.488L219.785 471.831C219.354 468.449 218.834 465.185 218.226 462.04C217.659 458.863 217.092 456.13 216.526 453.841Z" fill="#404040"/>
<path d="M254.202 467.537L258.094 450.203L262.311 449.857C263.472 455.138 264.426 460.566 265.17 466.14C265.951 471.711 266.716 477.541 267.466 483.63L263.084 483.99C262.888 482.017 262.679 479.88 262.456 477.578C262.233 475.276 261.986 472.902 261.715 470.457C261.48 468.008 261.224 465.525 260.948 463.006C260.707 460.485 260.454 458.038 260.189 455.666L256.511 471.547L252.567 471.87L246.278 456.807C246.433 459.188 246.576 461.644 246.708 464.175C246.872 466.666 247.018 469.158 247.147 471.652C247.308 474.107 247.445 476.489 247.559 478.8C247.708 481.108 247.845 483.251 247.968 485.23L243.587 485.59C243.471 482.8 243.368 479.936 243.278 476.997C243.188 474.058 243.117 471.136 243.066 468.23C243.051 465.322 243.058 462.449 243.086 459.61C243.15 456.769 243.242 454.036 243.361 451.412L247.523 451.07L254.202 467.537Z" fill="#404040"/>
<path d="M289.862 479.138L279.961 446.538L298.202 440.959L299.322 444.646L285.391 448.906L288.43 458.912L300.626 455.183L301.746 458.869L289.55 462.599L293.053 474.133L308.14 469.519L309.26 473.205L289.862 479.138Z" fill="#404040"/>
</g>
<circle cx="256.5" cy="256.5" r="173.5" fill="#38BDF8"/>
<defs>
<linearGradient id="paint0_linear_621_1249" x1="440.652" y1="-24.4148" x2="149.096" y2="333.037" gradientUnits="userSpaceOnUse">
<stop offset="0.748183" stop-color="#E0E0E0" stop-opacity="0"/>
<stop offset="1" stop-color="#E0E0E0"/>
</linearGradient>
<clipPath id="clip0_621_1249">
<rect width="512" height="512" fill="white"/>
</clipPath>
</defs>
</svg>
